 <svg  version="1.0" xmlns="http://www.w3.org/2000/svg"  width="900.000000pt" height="900.000000pt" viewBox="0 0 900.000000 900.000000"  preserveAspectRatio="xMidYMid meet">  <g transform="translate(0.000000,900.000000) scale(0.100000,-0.100000)" fill="#ffffff" stroke="none"> <path d="M886 8094 c-15 -14 -16 -92 -14 -757 l3 -742 749 -5 c526 -4 753 -2 760 6 8 7 10 234 6 760 l-5 749 -742 3 c-665 2 -743 1 -757 -14z m1299 -216 c3 -13 4 -261 3 -553 l-3 -530 -530 -3 c-291 -1 -540 0 -552 3 l-23 5 0 538 c0 405 3 541 12 550 9 9 145 12 550 12 l538 0 5 -22z"/> <path d="M1317 7663 c-9 -8 -9 -606 -1 -627 5 -14 43 -16 325 -16 l319 0 0 319 c0 282 -2 320 -16 325 -21 8 -619 8 -627 -1z"/> <path d="M3295 8088 c-3 -13 -4 -158 -3 -323 l3 -300 100 0 100 0 5 105 5 105 103 3 102 3 0 97 c0 63 4 102 12 110 9 9 71 12 219 12 179 0 208 2 213 16 8 20 8 123 0 163 l-6 31 -424 0 -424 0 -5 -22z"/> <path d="M4402 8098 c-8 -8 -12 -45 -12 -100 0 -103 -2 -101 120 -96 l75 3 3 88 c2 57 -1 94 -9 103 -15 18 -159 20 -177 2z"/> <path d="M4828 8088 c-1 -13 -2 -59 -2 -103 -1 -44 -5 -86 -9 -92 -6 -9 -39 -13 -108 -13 l-99 0 0 -100 0 -100 210 0 210 0 0 98 c0 63 4 102 12 110 18 18 202 16 217 -2 8 -9 11 -48 9 -112 l-3 -99 -100 -5 c-55 -3 -105 -8 -111 -12 -7 -5 -11 -71 -12 -197 -1 -160 1 -192 14 -205 12 -12 37 -16 103 -16 54 0 91 -4 99 -12 8 -8 12 -47 12 -110 l0 -98 100 0 100 0 0 88 c0 138 -5 132 110 132 80 0 99 3 104 16 3 9 6 105 6 215 0 230 -14 207 130 211 l85 3 3 193 c1 121 -1 200 -8 212 -9 17 -21 20 -86 20 -112 0 -114 -2 -114 -113 0 -59 -4 -97 -12 -105 -17 -17 -194 -16 -205 1 -4 6 -10 57 -13 112 l-5 100 -317 3 -318 2 -2 -22z"/> <path d="M6146 8088 c-3 -13 -6 -112 -6 -220 l0 -197 -102 -3 -103 -3 0 -430 0 -430 95 0 95 0 3 97 c2 62 7 100 15 107 7 5 56 12 108 13 l94 3 0 95 0 95 -95 3 c-75 2 -98 6 -107 19 -14 19 -18 190 -5 210 5 8 43 13 107 15 l100 3 3 300 c1 165 0 310 -3 323 -5 21 -10 22 -99 22 -89 0 -94 -1 -100 -22z"/> <path d="M6596 8101 c-4 -6 -9 -1222 -6 -1499 0 -10 155 -12 758 -10 l757 3 3 742 c2 664 0 743 -14 757 -14 14 -95 16 -754 16 -417 0 -741 -4 -744 -9z m1292 -213 c9 -9 12 -145 12 -550 l0 -538 -22 -5 c-13 -3 -261 -4 -553 -3 l-530 3 -3 530 c-1 292 0 540 3 553 l5 22 538 0 c405 0 541 -3 550 -12z"/> <path d="M7033 7663 c-10 -3 -13 -78 -13 -324 l0 -319 323 2 322 3 0 320 0 320 -310 2 c-170 1 -316 -1 -322 -4z"/> <path d="M2637 7664 c-9 -9 -9 -386 -1 -408 9 -24 189 -24 198 0 3 9 6 58 6 109 l0 94 103 3 102 3 0 100 0 100 -201 3 c-110 1 -203 -1 -207 -4z"/> <path d="M4173 7658 c-4 -7 -6 -43 -4 -80 1 -37 0 -81 -4 -97 l-6 -30 -102 -3 -102 -3 -3 -213 -2 -212 207 2 208 3 3 94 c1 52 8 101 14 108 8 10 60 13 219 13 160 0 209 3 210 13 5 60 6 147 2 170 l-5 27 -97 0 c-62 0 -101 4 -109 12 -8 8 -12 46 -12 104 0 75 -3 93 -16 98 -9 3 -101 6 -204 6 -140 0 -191 -3 -197 -12z"/> <path d="M3076 7435 c-3 -9 -6 -54 -6 -100 0 -111 -4 -115 -126 -115 l-94 0 0 -100 0 -100 98 0 c53 0 103 -4 109 -8 9 -6 13 -64 15 -212 l3 -205 100 0 100 0 5 100 5 100 104 3 c77 2 107 -1 113 -10 4 -7 8 -55 8 -105 l0 -93 100 0 99 0 3 103 3 102 99 3 c55 1 106 8 113 14 9 7 13 38 13 99 0 104 8 98 -135 102 l-90 2 -3 103 -3 102 -203 0 c-155 0 -206 3 -214 13 -6 7 -13 58 -14 113 l-3 99 -96 3 c-81 2 -98 0 -103 -13z"/> <path d="M4829 7208 c-4 -43 -5 -807 -1 -826 l4 -22 207 2 206 3 3 98 c2 87 1 97 -15 99 -10 1 -55 2 -101 3 -45 1 -87 6 -93 12 -6 6 -9 52 -7 114 l3 104 105 5 105 5 0 100 0 100 -105 5 -105 5 -3 103 -3 102 -99 0 c-73 0 -100 -3 -101 -12z"/> <path d="M5484 6997 c-2 -7 -4 -54 -2 -103 l3 -89 100 0 100 0 0 100 0 100 -98 3 c-75 2 -99 0 -103 -11z"/> <path d="M2637 6783 c-11 -11 -8 -181 4 -188 13 -9 175 -9 188 0 12 7 15 152 5 179 -5 13 -23 16 -98 16 -51 0 -96 -3 -99 -7z"/> <path d="M3957 6783 c-4 -3 -7 -48 -7 -100 l0 -94 103 3 102 3 3 65 c2 36 0 80 -3 98 l-6 32 -93 0 c-51 0 -96 -3 -99 -7z"/> <path d="M4397 6784 c-4 -4 -7 -49 -7 -101 l0 -94 98 3 97 3 0 95 0 95 -90 3 c-50 1 -94 0 -98 -4z"/> <path d="M5270 6690 l0 -100 100 0 100 0 0 100 0 100 -100 0 -100 0 0 -100z"/> <path d="M5707 6784 c-9 -9 -9 -386 -1 -408 5 -13 24 -16 100 -16 89 0 94 1 99 23 3 12 4 108 3 212 l-3 190 -95 3 c-53 1 -99 0 -103 -4z"/> <path d="M6147 6784 c-9 -9 -9 -386 -1 -408 5 -13 24 -16 100 -16 89 0 94 1 99 23 3 12 4 108 3 212 l-3 190 -95 3 c-53 1 -99 0 -103 -4z"/> <path d="M3302 6562 c-9 -6 -12 -34 -10 -103 l3 -94 94 -3 c69 -2 97 1 103 10 13 21 10 172 -4 186 -14 14 -165 17 -186 4z"/> <path d="M3742 6561 c-7 -4 -12 -49 -14 -106 l-3 -100 -107 -3 -108 -3 0 -98 c0 -70 -4 -102 -13 -110 -9 -7 -88 -12 -218 -13 l-204 -3 0 -95 0 -95 317 -3 317 -2 3 102 3 103 102 5 c56 3 105 9 110 13 4 5 8 94 9 199 1 146 -2 192 -12 203 -14 14 -162 19 -182 6z"/> <path d="M4177 6562 c-4 -6 -11 -373 -8 -409 1 -10 29 -13 105 -13 121 0 116 5 116 -111 0 -118 -1 -119 -120 -119 -82 0 -100 -3 -100 -15 0 -8 0 -148 0 -310 0 -162 0 -300 0 -305 0 -7 35 -10 98 -8 l97 3 5 210 5 210 85 3 c47 1 95 4 108 7 l22 5 -2 318 -3 317 -105 5 -105 5 -3 100 c-2 64 -7 102 -15 107 -16 10 -174 10 -180 0z"/> <path d="M1542 6342 c-9 -7 -12 -55 -10 -208 l3 -199 95 -3 c123 -3 130 -10 130 -126 0 -113 -2 -115 -125 -118 l-100 -3 -3 -94 c-2 -69 1 -97 10 -103 7 -4 56 -8 109 -8 79 0 98 -3 103 -16 3 -9 6 -56 6 -104 l0 -89 103 -3 102 -3 2 -90 c4 -141 -2 -132 102 -133 60 0 93 4 100 12 6 7 12 57 13 112 l3 99 101 3 c127 3 129 2 129 -120 0 -68 4 -91 15 -98 9 -6 92 -9 203 -6 154 3 191 1 203 -11 11 -12 14 -54 14 -209 0 -116 -4 -203 -10 -215 -9 -17 -22 -19 -105 -19 -111 0 -108 3 -103 -120 l3 -75 94 -3 c52 -1 101 -8 108 -14 9 -7 13 -40 13 -108 l0 -98 39 -7 c22 -3 59 -4 83 0 23 4 56 2 71 -4 l28 -11 -3 -102 -3 -103 -210 -3 c-152 -2 -211 -6 -217 -15 -9 -14 -11 -158 -2 -181 5 -14 43 -16 318 -16 229 0 315 -3 324 -12 8 -8 12 -47 12 -110 l0 -99 103 3 102 3 5 105 5 105 430 5 430 5 3 94 c2 69 -1 97 -10 103 -7 4 -55 8 -105 8 -81 0 -93 2 -95 18 0 9 -2 57 -2 107 l-1 90 -100 0 -100 0 -5 -105 c-5 -98 -6 -104 -28 -110 -12 -3 -112 -4 -222 -2 l-199 3 -3 107 -3 107 -90 1 c-49 0 -98 1 -107 2 -15 2 -18 16 -20 105 l-3 102 -100 3 c-79 2 -103 6 -112 19 -16 21 -19 839 -3 863 7 11 36 16 112 20 l103 5 0 95 0 95 -102 5 c-56 3 -107 10 -112 15 -6 6 -12 93 -13 215 l-3 205 -100 5 -100 5 -5 105 -5 105 -100 0 -100 0 -5 -105 -5 -105 -215 -5 -215 -5 0 -100 0 -100 100 -3 c74 -2 103 -6 111 -17 16 -21 9 -196 -8 -206 -16 -11 -189 -11 -205 -1 -8 5 -13 43 -15 107 l-3 100 -105 5 -105 5 -3 97 c-4 136 -4 137 116 140 l97 3 0 95 0 95 -94 3 c-52 1 -101 8 -108 13 -8 7 -13 45 -15 107 l-3 97 -200 2 c-110 2 -206 -1 -213 -5z m1302 -658 c11 -29 7 -189 -6 -202 -13 -13 -173 -17 -202 -6 -13 5 -16 24 -16 108 0 57 3 106 7 109 3 4 52 7 109 7 84 0 103 -3 108 -16z"/> <path d="M2194 6337 c-3 -8 -4 -54 -2 -103 l3 -89 190 -3 c105 -1 200 0 213 3 21 5 22 10 22 99 0 76 -3 95 -16 100 -9 3 -103 6 -210 6 -153 0 -196 -3 -200 -13z"/> <path d="M2854 6337 c-2 -7 -4 -54 -2 -103 l3 -89 95 0 95 0 0 100 0 100 -93 3 c-71 2 -94 0 -98 -11z"/> <path d="M7252 6338 c-8 -8 -12 -45 -12 -105 0 -51 -1 -94 -2 -95 -2 -1 -100 -4 -218 -7 l-215 -6 -5 -215 -5 -215 -102 -3 -103 -3 0 -209 0 -209 103 -3 102 -3 0 -115 0 -115 -108 -3 -107 -3 -11 28 c-6 15 -10 57 -9 93 3 109 13 99 -102 102 l-103 3 0 220 0 220 95 3 c52 2 99 7 103 11 7 7 10 182 7 404 0 16 -22 17 -315 17 l-315 0 0 -91 c0 -128 -1 -129 -114 -129 -65 0 -97 -4 -104 -13 -6 -7 -13 -56 -14 -108 l-3 -94 -105 -5 -105 -5 -5 -215 -5 -215 -99 -3 c-64 -2 -103 1 -112 9 -10 8 -14 38 -14 111 l0 99 -102 -3 -103 -3 -5 -105 -5 -105 -102 -3 c-57 -1 -104 -6 -104 -10 -6 -30 -4 -161 2 -180 8 -21 13 -22 98 -20 61 2 94 -1 102 -9 9 -9 12 -42 11 -102 -3 -107 0 -111 107 -111 104 0 101 -3 101 104 0 50 4 97 9 105 7 11 46 14 206 12 140 -2 201 1 211 10 11 9 14 51 14 220 l0 209 94 0 c52 0 101 3 110 6 13 5 16 24 16 105 0 116 -6 112 135 107 l90 -3 3 -104 c2 -77 -1 -107 -10 -113 -7 -4 -55 -8 -105 -8 l-93 0 0 -210 c0 -209 0 -210 23 -215 12 -3 101 -4 197 -2 96 2 183 0 193 -5 14 -7 17 -23 17 -108 0 -119 -3 -123 -118 -120 -43 1 -83 2 -90 1 -10 -1 -12 -25 -10 -98 l3 -98 102 -3 c119 -3 111 6 115 -132 l3 -85 96 -5 c60 -3 102 -10 113 -19 13 -11 16 -32 16 -107 0 -63 -4 -95 -12 -101 -7 -4 -44 -7 -83 -5 -38 1 -85 -1 -103 -4 l-33 -5 3 -97 3 -97 103 -3 c100 -3 103 -3 112 -28 6 -14 10 -63 10 -110 l0 -85 98 3 97 3 3 85 c4 138 -4 129 115 132 l102 3 3 102 3 102 42 4 c68 7 120 7 154 2 l33 -6 2 -322 3 -322 100 0 100 0 3 94 c1 52 8 101 14 108 7 9 39 13 103 13 75 0 94 3 99 16 3 9 6 103 6 210 0 148 -3 194 -12 195 -7 1 -43 0 -80 -1 -37 -1 -81 1 -97 5 l-30 6 -3 102 -3 102 -103 5 c-76 4 -105 9 -112 20 -5 8 -10 57 -10 108 l0 92 -89 0 c-49 0 -96 3 -105 6 -14 5 -16 34 -16 219 0 160 3 216 13 222 6 4 53 7 102 8 l90 0 5 102 c3 56 9 105 13 110 5 4 54 10 110 13 l102 5 3 98 3 97 -99 0 c-63 0 -104 4 -115 13 -13 9 -17 32 -19 107 l-3 95 -100 5 -100 5 -3 113 c-1 61 -1 113 0 114 2 1 149 5 328 8 l325 5 0 205 0 205 -200 3 c-148 2 -204 -1 -213 -10z m-509 -1518 l57 0 0 -109 c0 -90 -3 -110 -16 -115 -9 -3 -54 -6 -100 -6 -114 0 -124 10 -124 123 0 45 4 87 8 93 10 16 41 23 82 18 19 -2 61 -4 93 -4z"/> <path d="M874 6117 c-2 -8 -4 -52 -2 -98 l3 -84 100 0 100 0 0 95 0 95 -98 3 c-75 2 -99 0 -103 -11z"/> <path d="M4829 6113 c0 -10 -2 -50 -4 -89 -1 -39 0 -76 4 -83 5 -8 37 -11 102 -9 l94 3 0 95 0 95 -97 3 c-88 2 -98 1 -99 -15z"/> <path d="M5485 6108 c-3 -13 -5 -57 -3 -98 l3 -75 100 0 100 0 0 95 0 95 -97 3 c-94 3 -98 2 -103 -20z"/> <path d="M1316 5895 c-8 -21 -8 -143 0 -173 6 -22 10 -23 103 -20 l96 3 0 100 0 100 -96 3 c-81 2 -98 0 -103 -13z"/> <path d="M3743 5903 c-10 -3 -13 -55 -13 -208 0 -176 2 -204 16 -209 25 -10 157 -7 174 4 22 14 25 384 3 406 -10 10 -37 14 -91 13 -42 0 -83 -3 -89 -6z"/> <path d="M7687 5903 c-4 -3 -7 -51 -7 -105 l0 -98 94 0 c52 0 101 -3 110 -6 13 -5 16 -24 16 -105 0 -119 0 -119 -129 -119 l-91 0 0 -93 c0 -59 -5 -99 -12 -110 -10 -13 -33 -17 -108 -19 l-95 -3 -5 -105 -5 -105 -105 -5 -105 -5 0 -205 0 -205 210 0 210 0 3 211 2 211 51 6 c28 4 63 4 79 0 16 -3 41 -2 55 1 24 6 25 8 25 99 0 50 5 99 10 107 7 11 36 16 112 20 l103 5 3 305 c2 278 1 306 -15 318 -18 13 -393 18 -406 5z"/> <path d="M883 5683 c-10 -4 -13 -164 -13 -754 l0 -749 23 -9 c13 -5 59 -9 103 -8 43 1 85 -2 92 -6 8 -6 12 -38 12 -101 0 -118 -3 -121 -122 -121 -68 0 -91 -4 -98 -15 -6 -9 -10 -266 -10 -646 0 -567 2 -632 16 -638 9 -3 348 -6 754 -6 537 0 741 3 746 11 9 15 9 173 0 188 -5 7 -44 11 -107 11 l-100 0 3 113 3 112 215 6 c118 3 216 6 217 7 1 1 4 48 5 105 l3 102 104 3 c77 2 107 -1 113 -10 13 -21 10 -192 -4 -211 -10 -13 -33 -17 -108 -19 l-95 -3 0 -425 0 -425 97 -3 c62 -2 100 -7 107 -15 5 -7 12 -56 13 -108 l3 -94 105 -5 105 -5 5 -100 5 -100 97 -5 c53 -3 102 -10 107 -15 6 -6 12 -94 13 -220 l3 -210 429 -3 c329 -2 432 -5 438 -15 5 -6 8 -48 7 -92 0 -44 -1 -86 0 -92 1 -10 28 -13 101 -13 l100 0 2 433 3 432 105 5 105 5 0 100 0 100 -105 5 -105 5 -5 215 -5 215 -98 3 c-95 3 -97 2 -97 -20 -1 -13 0 -152 0 -310 1 -188 -3 -295 -10 -308 -10 -18 -21 -20 -110 -20 -85 0 -101 3 -108 18 -5 9 -7 202 -6 429 2 317 0 414 -10 422 -7 6 -57 12 -112 13 l-99 3 -3 103 -3 102 -99 0 -100 0 0 -92 c0 -51 -4 -98 -8 -105 -5 -8 -43 -13 -107 -15 l-100 -3 0 -100 0 -100 215 -5 215 -5 0 -220 0 -220 -107 -3 -108 -3 0 -104 0 -104 108 -3 107 -3 3 -200 c1 -110 0 -210 -3 -222 -5 -22 -10 -23 -115 -23 l-110 0 -2 218 -3 217 -105 5 -105 5 0 110 0 110 100 3 c64 2 102 7 107 15 12 18 10 175 -2 182 -6 4 -149 6 -318 6 -169 -1 -313 3 -320 7 -9 7 -12 59 -10 228 l3 219 215 5 215 5 3 85 c4 139 -4 130 111 130 81 0 100 3 105 16 8 20 8 158 0 178 -5 14 -34 16 -214 16 -158 0 -210 3 -218 13 -6 7 -13 56 -14 108 l-3 94 -304 3 c-223 2 -307 -1 -318 -10 -11 -9 -14 -33 -12 -100 2 -51 -2 -93 -7 -98 -7 -7 -53 -10 -115 -8 l-104 3 -5 105 -5 105 -100 0 -100 0 -3 -215 c-2 -156 -6 -216 -15 -222 -6 -4 -54 -8 -104 -8 l-93 0 0 -92 c0 -51 -4 -99 -8 -106 -7 -9 -81 -12 -338 -10 l-329 3 -3 319 c-1 216 1 323 8 330 7 7 124 13 328 16 l317 5 0 95 0 95 -85 3 c-145 4 -130 -22 -130 227 0 247 9 229 -109 220 -107 -9 -111 -5 -111 115 l0 100 -98 0 c-63 0 -102 4 -110 12 -16 16 -16 200 0 216 8 8 47 12 110 12 l98 0 0 99 c0 67 4 102 12 107 7 4 51 7 98 6 47 -1 91 1 98 6 9 6 12 34 10 103 l-3 94 -100 3 c-64 2 -102 7 -107 15 -13 20 -9 191 5 210 9 13 32 17 107 19 l95 3 3 98 3 97 -201 0 c-120 0 -209 4 -221 10 -17 9 -19 22 -19 104 0 76 -3 95 -16 100 -19 7 -163 7 -181 -1z"/> <path d="M4825 5668 c-3 -13 -5 -59 -3 -103 l3 -80 100 0 100 0 0 100 0 100 -97 3 c-94 3 -98 2 -103 -20z"/> <path d="M7464 5677 c-2 -7 -4 -54 -2 -103 l3 -89 100 0 100 0 0 100 0 100 -98 3 c-75 2 -99 0 -103 -11z"/> <path d="M3510 5370 l0 -101 98 3 97 3 3 98 3 97 -101 0 -100 0 0 -100z"/> <path d="M4612 5373 l3 -98 98 -3 c53 -1 97 1 98 5 4 64 5 171 1 181 -3 8 -33 12 -103 12 l-100 0 3 -97z"/> <path d="M3297 5243 c-13 -12 -8 -180 6 -191 17 -14 167 -15 183 -1 14 12 20 151 8 183 -5 13 -23 16 -98 16 -51 0 -96 -3 -99 -7z"/> <path d="M1764 5017 c-3 -8 -4 -54 -2 -103 l3 -89 75 -3 c124 -5 120 -8 120 108 l0 100 -95 0 c-70 0 -97 -4 -101 -13z"/> <path d="M2197 5023 c-4 -3 -7 -48 -7 -99 0 -75 3 -93 16 -98 25 -10 169 -7 180 3 5 6 8 53 6 105 l-3 96 -93 0 c-51 0 -96 -3 -99 -7z"/> <path d="M3510 4820 l0 -211 98 3 97 3 3 95 c2 52 7 99 12 104 5 5 48 8 95 7 119 -2 122 0 121 101 -1 46 -5 89 -9 96 -6 9 -60 12 -213 12 l-204 0 0 -210z"/> <path d="M4169 5018 c-1 -7 -1 -49 1 -94 3 -108 -5 -116 -114 -114 -44 1 -87 1 -94 1 -10 -1 -12 -24 -10 -98 l3 -98 98 -3 c96 -3 98 -3 108 -29 6 -16 9 -107 8 -214 -1 -103 2 -192 6 -199 5 -9 31 -10 87 -7 44 3 90 2 103 -3 23 -9 24 -14 27 -107 l3 -98 95 0 95 0 3 98 c3 117 5 118 130 111 58 -3 83 0 89 8 9 15 14 154 7 181 -5 15 -24 17 -213 17 -148 0 -210 3 -219 12 -17 17 -16 202 1 216 7 6 56 13 108 14 l94 3 0 205 0 205 -207 3 c-162 2 -208 0 -209 -10z"/> <path d="M1979 4809 c-6 -3 -8 -48 -7 -100 l3 -94 100 0 100 0 3 98 c1 53 -1 97 -5 97 -101 4 -187 4 -194 -1z"/> <path d="M7916 4812 c-15 -3 -16 -16 -14 -100 l3 -97 80 -3 c128 -5 125 -7 125 98 0 51 -4 92 -11 95 -11 7 -154 12 -183 7z"/> <path d="M2194 4577 c-2 -8 -4 -52 -2 -98 l3 -84 98 -3 98 -3 -3 98 -3 98 -93 3 c-71 2 -94 0 -98 -11z"/> <path d="M3294 4577 c-3 -8 -4 -52 -2 -98 l3 -84 94 -3 c69 -2 97 1 103 10 9 15 11 149 2 172 -8 21 -192 24 -200 3z"/> <path d="M5050 4571 c-6 -12 -10 -97 -10 -206 0 -183 0 -186 23 -193 17 -6 360 -9 400 -3 4 1 7 96 7 211 l0 210 -205 0 c-192 0 -205 -1 -215 -19z"/> <path d="M7680 4380 l0 -210 23 -1 c12 0 49 0 82 1 33 1 73 -3 88 -9 l27 -11 0 -320 0 -321 103 3 102 3 3 419 c2 329 0 421 -10 428 -7 4 -54 8 -105 8 -112 0 -113 1 -113 129 l0 91 -100 0 -100 0 0 -210z"/> <path d="M1767 4364 c-11 -12 -8 -194 3 -195 6 0 96 0 200 0 105 0 195 0 200 0 7 1 10 36 8 99 l-3 97 -201 3 c-110 1 -203 -1 -207 -4z"/> <path d="M2416 4352 c-4 -11 -4 -53 -2 -93 3 -41 1 -81 -4 -89 -6 -10 -33 -15 -97 -15 -48 -1 -96 -2 -106 -3 -16 -2 -17 -12 -15 -99 l3 -98 210 0 210 0 0 205 0 205 -97 3 c-87 2 -97 1 -102 -16z"/> <path d="M3510 4271 c0 -86 2 -100 18 -104 30 -9 376 -5 394 5 14 7 17 23 17 90 0 45 -5 88 -11 95 -8 10 -61 13 -214 13 l-204 0 0 -99z"/> <path d="M5707 4364 c-4 -4 -7 -143 -7 -309 0 -239 3 -305 13 -314 9 -7 88 -12 218 -13 l204 -3 5 -105 5 -105 85 -3 c138 -4 129 4 132 -115 l3 -102 102 -3 c123 -3 125 -5 122 -123 -1 -44 2 -84 7 -89 5 -5 52 -10 104 -12 l95 -3 3 -112 3 -113 -328 -2 -328 -3 -5 -105 -5 -105 -90 -3 c-148 -5 -134 -26 -137 216 l-3 207 -100 0 -100 0 -3 -314 c-1 -206 -6 -319 -13 -327 -7 -9 -43 -14 -107 -16 l-97 -3 -3 -75 c-5 -131 -25 -120 216 -120 148 0 211 -3 220 -12 9 -9 12 -70 12 -215 l0 -203 93 0 c50 0 98 -4 104 -8 9 -6 13 -66 15 -222 l3 -215 100 0 100 0 5 105 5 105 95 3 c52 2 99 7 105 13 5 5 10 51 10 100 0 78 3 93 19 105 25 18 186 20 204 2 7 -7 12 -45 12 -99 0 -48 3 -94 6 -103 9 -24 189 -24 198 0 3 9 6 55 6 103 0 54 5 92 12 99 8 8 46 12 105 12 l93 0 0 93 c0 50 4 98 8 105 7 9 59 12 228 10 l219 -3 3 -90 c5 -148 25 -135 -211 -135 -145 0 -206 -3 -215 -12 -16 -16 -16 -159 1 -181 11 -16 39 -17 317 -15 l305 3 0 320 0 320 -210 5 -210 5 -5 215 -5 215 -99 3 c-55 1 -106 8 -113 14 -10 8 -13 59 -13 214 l0 204 -89 0 c-49 0 -96 3 -105 6 -13 5 -16 24 -16 103 0 53 -4 101 -8 108 -5 8 -43 13 -107 15 l-100 3 -3 100 c-2 64 -7 102 -15 107 -7 4 -53 8 -104 8 -111 0 -116 5 -113 113 1 40 2 77 1 84 -1 9 -32 13 -103 15 l-103 3 -3 99 c-1 55 -8 106 -14 113 -8 10 -34 13 -97 11 -47 -1 -92 1 -98 5 -9 6 -13 39 -13 107 l0 99 -44 6 c-25 4 -62 4 -83 0 -21 -3 -51 -1 -66 4 -26 10 -26 12 -29 108 l-3 98 -95 3 c-53 1 -99 0 -103 -4z m1311 -2060 c2 -264 0 -323 -12 -333 -9 -8 -103 -11 -332 -9 l-319 3 -3 320 c-1 176 0 326 3 333 3 10 74 12 332 10 l328 -3 3 -321z"/> <path d="M6596 2384 c-7 -6 -10 -46 -8 -103 l3 -92 97 3 97 3 3 97 3 97 -92 3 c-57 2 -97 -1 -103 -8z"/> <path d="M6147 4364 c-4 -4 -7 -49 -7 -100 0 -107 -5 -102 105 -102 111 -1 106 -6 103 106 l-3 97 -95 3 c-53 1 -99 0 -103 -4z"/> <path d="M4827 4151 c-3 -6 -1 -396 2 -413 0 -5 92 -8 204 -8 148 0 208 -3 220 -13 15 -10 17 -27 15 -112 l-3 -100 -100 -5 c-55 -3 -106 -9 -112 -13 -17 -11 -18 -168 -1 -185 8 -8 47 -12 110 -12 114 0 106 9 110 -130 l3 -85 95 0 95 0 0 430 0 430 -202 1 c-111 1 -209 4 -217 7 -12 5 -16 28 -18 109 l-3 103 -98 1 c-54 0 -99 -2 -100 -5z"/> <path d="M2197 3703 c-4 -3 -7 -48 -7 -100 l0 -93 99 0 100 0 3 90 c2 50 2 95 0 100 -4 11 -185 14 -195 3z"/> <path d="M4392 3503 l3 -208 105 -5 105 -5 5 -105 5 -105 98 -3 c87 -2 97 -1 98 15 0 20 0 604 -1 616 0 4 -95 7 -210 7 l-210 0 2 -207z"/> <path d="M6807 3704 c-4 -4 -7 -49 -7 -101 l0 -93 105 0 106 0 -3 98 -3 97 -95 3 c-53 1 -99 0 -103 -4z"/> <path d="M3517 3493 c-4 -3 -7 -51 -7 -105 l0 -98 204 0 c153 0 206 3 214 13 6 7 11 50 11 95 0 70 -3 83 -19 92 -21 11 -392 14 -403 3z"/> <path d="M5718 3493 c-16 -4 -18 -17 -18 -99 0 -110 -4 -107 125 -102 l80 3 3 94 c2 69 -1 97 -10 103 -13 8 -150 9 -180 1z"/> <path d="M7032 3492 c-9 -6 -12 -34 -10 -103 l3 -94 95 0 95 0 0 100 0 100 -85 3 c-47 1 -91 -2 -98 -6z"/> <path d="M7687 3494 c-4 -4 -7 -47 -7 -95 0 -48 -3 -94 -6 -103 -5 -13 -24 -16 -105 -16 -94 0 -99 -1 -104 -22 -3 -13 -4 -108 -3 -213 l3 -190 100 0 100 0 5 105 5 105 101 3 c76 2 104 -1 112 -11 8 -9 13 -85 14 -218 l3 -204 80 -3 c44 -2 90 0 102 3 l23 5 0 301 c0 188 -4 308 -10 320 -9 17 -22 19 -104 19 -65 0 -97 4 -104 13 -6 7 -13 56 -14 108 l-3 94 -90 3 c-50 1 -94 0 -98 -4z"/> <path d="M1316 3264 c-3 -9 -6 -49 -6 -89 0 -108 -3 -105 105 -105 108 0 105 -3 105 105 0 108 3 105 -105 105 -75 0 -94 -3 -99 -16z"/> <path d="M6146 3265 c-8 -21 -8 -158 0 -179 5 -13 24 -16 100 -16 110 0 107 -4 102 125 l-3 80 -96 3 c-81 2 -98 0 -103 -13z"/> <path d="M3957 3044 c-4 -4 -7 -49 -7 -101 l0 -93 100 0 c116 0 113 -4 108 120 l-3 75 -95 3 c-53 1 -99 0 -103 -4z"/> <path d="M4829 3043 c-5 -38 -5 -394 1 -402 4 -8 38 -11 101 -9 l94 3 3 102 c3 119 -6 111 132 115 l85 3 3 98 3 97 -211 0 c-115 0 -210 -3 -211 -7z"/> <path d="M4402 2832 c-9 -6 -12 -34 -10 -103 l3 -94 75 -3 c123 -5 120 -8 120 102 0 76 -3 95 -16 100 -23 9 -157 7 -172 -2z"/> <path d="M5046 2598 c-9 -35 -7 -151 3 -167 8 -12 46 -14 208 -13 109 0 201 1 206 2 4 0 7 45 7 100 l0 100 -209 0 c-208 0 -209 0 -215 -22z"/> <path d="M7680 2520 c0 -88 2 -100 18 -100 37 -1 158 -2 170 -1 9 1 12 28 12 101 l0 100 -100 0 -100 0 0 -100z"/> <path d="M1620 2390 l-745 -5 -3 -742 c-2 -665 -1 -743 14 -757 14 -15 92 -16 757 -14 l742 3 3 756 c2 601 0 758 -10 760 -7 2 -348 2 -758 -1z m568 -735 c1 -291 0 -540 -3 -552 l-5 -23 -538 0 c-405 0 -541 3 -550 12 -18 18 -17 1084 1 1091 6 3 255 5 552 4 l540 -2 3 -530z"/> <path d="M1315 1938 c-3 -13 -4 -158 -3 -323 l3 -300 320 0 320 0 3 323 2 322 -320 0 -320 0 -5 -22z"/> <path d="M4619 2386 c-5 -6 -9 -52 -9 -103 l0 -93 100 0 c88 0 100 2 101 18 0 9 2 49 4 88 1 39 0 77 -5 83 -9 15 -176 21 -191 7z"/> <path d="M4828 2168 c-3 -7 -4 -48 -2 -91 6 -115 4 -117 -116 -117 l-100 0 2 -322 3 -323 98 -3 c53 -1 97 1 97 5 1 4 2 100 3 213 1 113 6 211 10 218 6 8 39 12 108 12 l99 0 -2 208 -3 207 -96 3 c-72 2 -98 -1 -101 -10z"/> <path d="M5277 2173 c-4 -3 -7 -97 -7 -208 0 -143 -3 -204 -12 -213 -7 -7 -44 -12 -96 -12 -115 0 -121 -4 -121 -91 0 -38 4 -81 9 -95 l10 -24 312 2 313 3 0 210 0 210 -94 3 c-52 1 -101 8 -108 14 -9 7 -13 40 -13 109 l0 99 -93 0 c-52 0 -97 -3 -100 -7z"/> <path d="M2637 1954 c-9 -9 -9 -386 -1 -408 5 -13 24 -16 100 -16 89 0 94 1 99 23 3 12 4 108 3 212 l-3 190 -95 3 c-53 1 -99 0 -103 -4z"/> <path d="M2850 1201 l0 -321 23 -5 c12 -3 56 -5 97 -3 l75 3 5 102 c3 56 9 105 13 110 5 4 54 10 110 13 l102 5 3 98 3 97 -99 0 c-63 0 -104 4 -115 13 -13 9 -17 32 -19 107 l-3 95 -97 3 -98 3 0 -320z"/> <path d="M5704 1507 c-2 -7 -3 -100 -2 -207 l3 -195 102 -5 c56 -3 105 -9 110 -13 4 -5 10 -54 13 -110 l5 -102 304 -3 c197 -1 308 1 315 8 13 13 16 159 4 183 -8 15 -28 17 -212 17 -177 0 -205 2 -210 16 -3 9 -6 58 -6 110 l0 94 -87 0 c-139 0 -133 -5 -133 110 0 80 -3 99 -16 104 -31 12 -184 7 -190 -7z"/> <path d="M7145 1339 c-4 -5 0 -18 9 -28 12 -13 16 -39 16 -105 0 -85 15 -139 44 -158 24 -16 131 -8 170 13 39 21 39 21 65 1 22 -16 44 -20 121 -20 52 0 108 4 123 10 20 8 31 8 40 -1 15 -15 76 -13 107 4 21 11 27 11 40 0 8 -8 35 -15 60 -17 46 -3 58 -20 18 -26 -36 -6 -88 -52 -88 -78 0 -44 72 -69 123 -43 28 15 37 28 37 57 0 12 16 38 35 58 19 19 35 39 35 44 0 13 -23 13 -37 -1 -23 -23 -33 3 -33 86 0 51 -4 87 -11 91 -16 9 -29 -15 -29 -53 0 -45 -15 -80 -41 -93 -35 -19 -63 16 -62 79 0 31 -5 55 -13 62 -15 13 -14 16 -33 -66 -15 -60 -28 -77 -55 -73 -20 3 -21 11 -26 128 -5 117 -6 125 -25 125 -18 0 -20 -9 -26 -115 -4 -63 -7 -116 -8 -117 0 -2 -12 -10 -26 -19 -24 -16 -27 -16 -45 1 -15 14 -20 31 -20 72 0 48 3 54 25 63 27 10 34 30 10 30 -17 0 -35 30 -35 60 0 15 -5 20 -16 18 -22 -4 -46 -85 -33 -109 13 -25 11 -64 -5 -104 -11 -26 -21 -35 -39 -35 -31 0 -37 16 -37 96 0 57 -2 64 -20 64 -16 0 -20 -7 -20 -33 0 -39 -31 -101 -54 -105 -13 -3 -16 5 -16 41 0 35 -6 53 -26 77 -24 28 -32 31 -73 28 l-46 -3 -3 40 c-2 22 -8 45 -14 52 -13 16 -54 17 -63 2z m171 -154 c21 -32 10 -80 -22 -101 -22 -15 -26 -15 -49 0 -32 21 -34 70 -3 103 28 30 53 29 74 -2z m684 -230 c0 -39 -73 -64 -87 -30 -8 23 26 55 59 55 23 0 28 -4 28 -25z"/> <path d="M7442 1313 c5 -26 38 -29 38 -4 0 15 -6 21 -21 21 -14 0 -19 -5 -17 -17z"/> <path d="M4829 1248 c0 -29 -2 -118 -4 -198 -2 -80 1 -153 6 -162 14 -25 184 -27 193 -2 3 9 6 55 6 103 0 54 5 92 12 99 9 9 72 12 220 12 l208 0 0 100 0 100 -320 0 -320 0 -1 -52z"/> <path d="M3514 1067 c-2 -7 -4 -54 -2 -103 l3 -89 95 0 95 0 0 100 0 100 -93 3 c-71 2 -94 0 -98 -11z"/> <path d="M3957 1073 c-9 -8 -9 -166 -1 -187 5 -13 24 -16 99 -16 107 0 105 -3 105 112 0 100 2 98 -104 98 -51 0 -96 -3 -99 -7z"/> <path d="M4397 1073 c-12 -12 -8 -178 5 -191 7 -7 42 -12 88 -12 46 0 81 5 88 12 7 7 12 45 12 99 0 70 -3 88 -16 93 -21 8 -169 8 -177 -1z"/> </g> </svg> 